<?xml version="1.0" encoding="UTF-8"?>
<svg id="Layer_2" data-name="Layer 2" xmlns="http://www.w3.org/2000/svg" viewBox="0 0 1116.72 423.6">
  <defs>
    <style>
      .cls-1 {
        fill: #010101;
      }

      .cls-2 {
        fill: #0b0909;
      }

      .cls-3 {
        fill: #050404;
      }

      .cls-4 {
        fill: #f9b400;
      }

      .cls-5 {
        fill: #020202;
      }

      .cls-6 {
        fill: #fab400;
      }

      .cls-7 {
        fill: #030201;
      }

      .cls-8 {
        fill: #0e0d0d;
      }

      .cls-9 {
        fill: #67bddb;
      }
    </style>
  </defs>
  <g id="Layer_1-2" data-name="Layer 1">
    <g>
      <path class="cls-1" d="M58.07.48c28.71,1.15,47.05,11.7,48.97,42.44s-.55,64.54-1.19,95.27c-1.44,6.98-4.02,13.81-8.23,19.6-12.38,17.06-34.65,17.58-53.94,17.31v67.64L0,259.53V.48C19.3,1.06,38.78-.29,58.07.48ZM43.67,135.76h8.88c7.34,0,9.84-7.17,10.31-13.2,1.94-24.84-.87-52.95-.68-77.97-.99-4.65-6.05-7.65-10.58-7.65h-7.92v98.82Z"/>
      <path class="cls-2" d="M799.03,423.6c-2.98-1.64-7.59-.49-5.03-5.27l6.69,1.45c8.02.34,10.26-4.11,9.85-11.53-7.08,8.27-18.97,3.68-19.61-7.03-.66-11.09,11.78-18.7,19.38-9.29.09-4.51.44-3.29,4.56-3.36v23.27c0,5.97-4.48,10.54-10.08,11.75h-5.76ZM801.79,391.57c-8.46,1.27-8.91,15.58-.39,16.94,12.55,2,12.4-18.74.39-16.94Z"/>
      <path class="cls-8" d="M1116.72,225.47h-3.36s0-8.16,0-8.16c-1.27.54-2.64,5.12-4.06,4.8-.71-.16-2.41-4.38-3.61-4.8v8.16h-3.36v-14.39c5.15-1.24,4.62,3.18,7.67,5.76,1.51-3.02,2.54-6.71,6.73-5.76v14.39Z"/>
      <path class="cls-7" d="M772.67,129.92C772.67,58.34,714.62.3,643,.3s-129.67,58.03-129.67,129.62,58.05,129.62,129.67,129.62,129.67-58.03,129.67-129.62ZM667.53,17.27l-18-2.41-.94.5-113.73,151.62c-1.28,3.47,5.91,14.38,6.95,18.2l125.72-167.9ZM634.9,15.36c-8.1.37-17.03,1.47-24.41,4.61l-82.24,109.68c-1.02,8.12.83,16.34,2.04,24.34L634.9,15.36ZM630.58,116.09l64.73-88.11c.12-1.29-14.02-7.39-15.77-6.64l-82.56,111.55h66.23l-72.76,98.32c-.33.6-.13.79.29,1.21.83.85,14.17,6.57,14.91,6.25l90.68-122.58h-65.75ZM591.23,27.35c-31.82,15.44-55.15,46.72-61.42,81.55l61.42-81.55ZM649.3,106.5h20.4l48.66-63.17-13.38-10.23-55.68,73.4ZM684.33,106.5h20.88l32.26-41.97-10.67-13.18-42.47,55.16ZM616.67,242.26c3.71.14,16.77,3.82,19.43,1.92l114.94-153.78c-1.93-5.9-4.75-11.62-7.92-16.99l-126.45,168.85ZM674.59,240.67l83.39-111.17c.92-2.84-1.53-23.95-2.86-24.44l-104.37,139.36c.08,1.36,22.16-2.62,23.84-3.75ZM610.91,142.48h-20.4l-41.45,53.56,10.26,13.13,51.58-66.69ZM644.98,142.48h-20.4l-56.82,74.2,13.38,10.23,63.84-84.43ZM695.37,232.18c31.1-15.2,54.69-46.34,60.46-80.59l-60.46,80.59Z"/>
      <path class="cls-1" d="M845.1.48c23.29.93,42.73,7.91,47.76,33.09.68,30.86,3.11,64.9,1.18,95.71-.63,10-3.47,20.35-9.39,28.51-12.41,17.1-34.62,17.56-53.94,17.31v67.64l-43.19,16.79V.48c19.14.57,38.46-.77,57.58,0ZM830.7,135.76h8.88c7.03,0,9.81-6.85,10.31-12.72,2.09-24.84-.98-53.39-.68-78.45-.99-4.65-6.05-7.65-10.58-7.65h-7.92v98.82Z"/>
      <polygon class="cls-1" points="239.95 31.66 247.39 138.16 249.21 139.07 250.48 137.42 262.5 31.66 283.34 31.63 295.26 140.43 296.74 140.94 306.17 31.66 337.37 31.66 314.6 227.42 284.58 227.87 273.57 126.38 271.86 126.12 260.11 227.87 230.15 227.9 208.28 31.66 239.95 31.66"/>
      <path class="cls-5" d="M157.31,29.41c27.62-2.11,45.07,10.95,46.66,38.93,2.29,40.33-1.76,82.78,0,123.33.17,29.21-22.83,41.74-49.62,38.54-22-2.63-32.56-15.44-33.92-37.1-2.56-40.95,1.97-84.51,0-125.73.62-22.67,14.55-36.26,36.88-37.97ZM159.68,59.12c-4.93.96-4.46,7.29-5.17,11.14,1.97,38.28-2.56,79.1,0,117.09.38,5.63.79,11.92,7.94,11.77s7.13-7.74,7.45-13.21c2.32-39.09-1.29-81.02-.62-120.31-1.04-5.47-4.02-7.58-9.6-6.49Z"/>
      <path class="cls-1" d="M418.47,31.66c14.45.61,29.56-.82,43.93-.02,16.13.89,31.13,5.76,35.5,23.04,2.63,10.41,2.13,45.99,1.13,57.74-.62,7.34-3.82,15.94-8.81,21.42-2.06,2.26-4.35,3.46-6.49,5.47l29.76,88.56h-35.51l-23.51-69.34c-1.04-.69-3.36.27-3.36,1.46v25.67h-32.63V31.66ZM451.1,114.66h7.44c3.65,0,6.59-3.98,6.98-7.41.89-7.69,1.01-33.79-.07-41.24-.45-3.11-3.81-6.52-6.91-6.52h-7.44v55.17Z"/>
      <polygon class="cls-1" points="408.87 31.66 408.87 62.84 377.68 62.84 377.68 113.22 403.59 113.22 403.59 144.88 377.68 144.88 377.68 196.21 452.78 196.21 462.62 227.87 344.57 227.87 344.57 31.66 408.87 31.66"/>
      <path class="cls-1" d="M938.2,31.66v161.67h98.86v32.86c0,.05-.67.72-.72.72h-118.05c-5.44,0-14.16-8.68-14.16-14.15V31.66h34.07Z"/>
      <polygon class="cls-5" points="1053.37 31.66 1061.77 115.62 1063.22 116.13 1072.57 31.66 1105.68 31.66 1079.83 177.33 1079.77 226.91 1045.22 226.91 1045.15 177.81 1019.78 31.66 1053.37 31.66"/>
      <path class="cls-1" d="M946.36,178.94l27.58-147.31,32.36.09,27.89,147.22h-32.15l-4.09-32.15-16.79,7.68-3.12,24.47h-31.67ZM984.75,122.81c1.92-.94,9.19-3.22,9.6-5.03-.8-3.66-1.32-20.61-2.83-22.59-.92-1.2-2.88-.8-3.29.64l-3.48,26.98Z"/>
      <path class="cls-3" d="M571.08,363.15c-.14.46.48,1.03.48,1.2v9.35h-13.44l12.48,4.8-3.59,9.52-13.21-4.72,10.5,9.42c.16,1.09-4.82,6.39-5.94,7.36-.71,0-9.17-8.24-10.77-9.37-.65-.46-1.02-.89-1.95-.69l8.16,14.38-7.68,4.12-9.58-16.1,2.9,18.41c-.2.56-6.95,1.72-7.65,1.2-.8-.6-2.3-17.4-3.89-19.61-.84,2.95-2.11,17.94-3.31,19.39-.94,1.14-6.23-.64-7.74-.69l3.6-21.59c-1.66,2.34-9.8,18.66-11.3,18.52-.71-.07-5.72-2.79-5.18-4.24l10-18.11-16.63,13.39c-.76.1-4.07-4.14-3.93-4.92.31-1.7,15.96-12.8,17.68-15.66l-21.4,7.67c-1.57.69-3.22-4.81-2.88-5.3l24.27-9.1c5.29,24.46,40.68,15.7,33.6-8.63h26.39Z"/>
      <path class="cls-3" d="M622.43,363.15h-9.84c-1.04,0-5.05-10.09-6.23-11.04s-3.16-.31-4.57-.47v11.51h-9.12v-35.5h15.6c9.27,0,13.98,11.8,8.6,19.15-.72.99-2.59,1.73-2.62,2.66-.04,1.54,7.78,11.06,8.18,13.69ZM601.79,344.44c11.56,1.93,11.35-11.31,0-9.59v9.59Z"/>
      <path class="cls-3" d="M712.17,327.65v13.43c4.56-5.22,15.36-2.76,15.36,4.56v17.51h-8.64v-15.11c0-3.05-6.72-2.83-6.72,1.44v13.67h-8.16v-35.5h8.16Z"/>
      <path class="cls-3" d="M640.66,363.15c-.13-.13.09-1.46,0-1.92-18.17,13.04-25.15-21.47-7.85-22.98,4.41-.38,7.2,2.81,7.62,2.83.51.02.12-1.92.24-1.92h8.16v23.99c-1.14-.22-7.88.3-8.16,0ZM634.78,346c-5.74,1.11-4.58,11.43,2.16,10.34,5.84-.95,5.14-11.75-2.16-10.34Z"/>
      <path class="cls-3" d="M811.99,363.15h-8.64v-14.63c0-3.68-6.72-3.23-6.72.48v14.15h-8.64v-23.99h8.64c.1,0-.07,1.6,0,1.92,5.33-5.59,15.35-2.55,15.35,5.52v16.55Z"/>
      <path class="cls-3" d="M660.34,339.17c.55.33,3.59,10.5,4.33,11.99,1.09.7,4.14-11.99,4.79-11.99h9.12l-15.12,34.54h-7.92c0-3.93,5.2-9.08,4.79-12.66l-9.11-21.88c1.55.34,8.35-.46,9.12,0Z"/>
      <path class="cls-3" d="M784.63,351.12c0,7.27-5.9,13.17-13.17,13.17s-13.17-5.9-13.17-13.17,5.9-13.17,13.17-13.17,13.17,5.9,13.17,13.17ZM770.1,345.5c-5.7,1.28-4.97,12.34,2.16,11.32,6.49-.92,5.61-13.07-2.16-11.32Z"/>
      <path class="cls-3" d="M739.52,353.56c1.19,6.65,12.78,2,13.42,2.4.26.17,2.08,4.95,2.42,5.74-9.97,4.81-24.93,2.42-24.5-11.27.47-15.12,22.48-16.32,24.45-2.83.14.97.35,5.95-.68,5.95h-15.12ZM747.68,348.28c-1.34-5.19-7.32-5.16-8.64,0h8.64Z"/>
      <path class="cls-7" d="M692.97,332.93c.29.29-.31,6.24,0,6.24h7.68c-.23,1.13-1.26,6.08-1.9,6.49-.99.64-5.78-.07-5.78.22v8.4c0,4.2,6.84,1.81,7.2,2.16.25.24.72,5.94-.32,6.64-3.47,2.35-15.04.55-15.04-4.96v-12.23c0-.22-4.32.22-4.32,0v-6.72c0-.21,3.47.47,4.11-.45s-.08-5.79.21-5.79c1.19,0,7.87-.29,8.16,0Z"/>
      <path class="cls-2" d="M621.47,401.53c.21,4.78,4.43,7.22,8.87,7.23,3.88.01,8.28-3.89,8.39,1.86-9.71,4.24-22.22,1.45-21.57-11.23.85-16.62,24.55-14.95,22.07,2.14h-17.76ZM621.47,398.17h13.44c.52-9.37-12.93-8.82-13.44,0Z"/>
      <path class="cls-2" d="M835.98,401.53c.39,5.09,4.07,7.3,8.87,7.23,1.75-.02,6.31-1.74,7.13-1.44.72.26,1.43,2.19,1.06,2.84-.87,1.55-8.18,2.46-10.04,2.34-19.51-1.23-11.28-31.99,5.31-23.55,4.14,2.11,7.15,12.57,4.7,12.57h-17.04ZM849.42,398.17c.02-9.26-12.84-8.92-13.44,0h13.44Z"/>
      <path class="cls-3" d="M673.78,377.07v14.39c3.25-3.77,9.51-5.28,13.39-1.63.64.6,2.45,3.59,2.45,4.27v17.51h-3.84v-15.11c0-7.14-12-6.7-12,1.92v13.19h-3.84v-34.54h3.84Z"/>
      <path class="cls-2" d="M786.67,400.09c0,6.77-5.49,12.25-12.26,12.25s-12.26-5.48-12.26-12.25,5.49-12.25,12.26-12.25,12.26,5.48,12.26,12.25ZM772.99,391.57c-8.53,1.29-8.66,15.34-.39,16.94,12.7,2.45,12.88-18.83.39-16.94Z"/>
      <path class="cls-2" d="M747.17,400.09c0,6.77-5.49,12.25-12.26,12.25s-12.26-5.49-12.26-12.25,5.49-12.25,12.26-12.25,12.26,5.49,12.26,12.25ZM733.16,391.57c-8.95,1.55-8.13,18.35,2.72,17.12,10.42-1.18,8.91-19.14-2.72-17.12Z"/>
      <polygon class="cls-8" points="620.03 377.07 620.03 380.9 608.03 380.9 608.03 411.61 603.71 411.61 603.71 380.9 591.23 380.9 591.23 377.07 620.03 377.07"/>
      <path class="cls-3" d="M716.97,411.61h-3.84v-14.15c0-8.96-12-6.79-12,0v14.15h-3.84v-23.03c.71.12,3.67-.17,3.84,0,.26.26-.39,3.15.24,3.37,2.58-5.1,10.58-5.61,13.88-.93.34.49,1.71,3.25,1.71,3.57v17.03Z"/>
      <path class="cls-2" d="M874.85,389.55c-1.19,6.04-7.87-.71-11.3,2.84-4.25,4.39,9.13,6.28,11.05,9.16,6.26,9.38-10.34,14.06-16.33,8.63,1.33-4.94,2.69-1.95,5.83-1.49,2.46.35,7.28.32,7.4-3.12.17-4.62-11.66-2.89-12.49-10.02-1.04-8.89,10.14-9.01,15.85-6Z"/>
      <path class="cls-8" d="M319.61,365.07c1.04.17,2.89-.33,3.74.11.77.4,5.39,9.93,7.3,10.93v-11.03h3.84v19.19c-6.11,1.31-7.21-7.76-11.04-11.03v11.03h-3.84v-19.19Z"/>
      <path class="cls-3" d="M400.23,384.26v-18.47c0-.05.67-.72.72-.72h8.64c2.23,0,4.47,2.8,4.58,5.06.13,2.83-1.91,4.05-1.91,4.3,0,.28,2.48,2.06,2.19,5.05-.18,1.76-2.08,4.79-3.89,4.79h-10.32ZM404.07,372.75c8.64,1.34,8.48-5.57,0-4.32v4.32ZM404.07,380.91c1.9-.14,5.6.72,6.49-1.46,1.58-3.86-8.95-5.96-6.49,1.46Z"/>
      <path class="cls-8" d="M257.94,365.07c1.72.29,4.09,2.42,4.45,4.18,1.16,5.67-3.09,6.33-3.19,7.08-.07.57,4.62,7.65,4.25,7.92-7.9,2.29-4.61-7.13-10.56-7.67v7.68h-4.32v-19.19c2.85.34,6.65-.46,9.36,0ZM253.21,368.5c-1.21.47-1.08,4.48-.34,5,8.46,2.14,6.56-7.4.34-5Z"/>
      <path class="cls-2" d="M663.15,407.83c.24.14,1.28,2.34.56,3.06-3.48,3.47-13.92,1.14-17.01-2.68-8.94-11.07,4.65-25.98,16.79-18.68-.35,5.35-3.3,1.88-6.76,1.91-11.13.08-11.32,17.11,0,17.34,1.49.03,5.75-1.31,6.4-.93Z"/>
      <path class="cls-8" d="M373.84,384.26v-19.19h8.88c7.54,0,7.06,19.19.48,19.19h-9.36ZM377.68,380.9c8.31,2.89,9.17-12.67,2.15-12.51-.54.01-2.15.11-2.15.76v11.75Z"/>
      <path class="cls-2" d="M280.26,365.07c.05.77.2,3.84-.72,3.84h-7.92v3.84h7.2v3.84h-7.2v4.32h8.64v3.36h-12.96v-18.47c0-.05.67-.72.72-.72h12.24Z"/>
      <path class="cls-2" d="M369.04,365.07v3.36h-7.92c-.99,0-.73,3.52-.72,4.32h6.96c1,0,1,3.84,0,3.84h-6.96v4.32h8.64v3.36h-12.48v-19.19h12.48Z"/>
      <polygon class="cls-2" points="314.81 365.07 314.81 368.43 306.17 368.43 306.17 372.75 313.37 372.75 313.37 376.59 306.17 376.59 306.17 380.9 314.81 380.9 314.81 384.26 302.34 384.26 302.34 365.07 314.81 365.07"/>
      <path class="cls-2" d="M293.1,380.31c4.36-4.32-7.52-2.85-8.77-7.55-2.1-7.93,8-9.92,12.72-5.53-1.37,4.31-9.12-1.43-9.16,3.36-.03,3.69,8.4.7,9.53,6.35,1.64,8.16-9.26,9.77-13.78,5.11,1.48-5.21,6.48,1.21,9.45-1.74Z"/>
      <rect class="cls-8" x="752.48" y="377.07" width="4.32" height="34.54"/>
      <path class="cls-2" d="M234.67,377.07v7.2h-3.84v-19.19h8.88c2.42,0,4.8,3.77,4.87,6.07.16,5.61-5.5,6.5-9.91,5.92ZM234.67,373.71c8.07,1.32,8.01-6.5,0-5.28v5.28Z"/>
      <path class="cls-3" d="M511.09,366.03c-.26,1.92-.58,3.36,0,5.28h-25.91v-5.28h25.91Z"/>
      <rect class="cls-2" x="497.38" y="345.22" width="5.07" height="26.44" transform="translate(-8.75 704.37) rotate(-69.86)"/>
      <path class="cls-8" d="M422.79,375.87c-.27-1.32-6.27-9.83-5.28-10.79,5.68-1.36,4.84,4.12,7.67,7.19,2.08-3.94,1.47-8.6,7.2-7.19.63.56-5.76,10.82-5.76,11.75v7.44h-3.84c-.34-2.47.47-6.1,0-8.4Z"/>
      <rect class="cls-2" x="502.71" y="336.1" width="4.73" height="26.35" transform="translate(-86.36 514.49) rotate(-50.27)"/>
      <path class="cls-2" d="M352.24,365.07v3.36s-4.8,0-4.8,0v15.83h-3.84v-15.11c0-1.27-5.03-.46-5.28-.72-.22-.22-.06-3.36.72-3.36h13.2Z"/>
      <path class="cls-8" d="M1092.25,215.87c.77,1.2,8.3.31,7.66,5.96s-8.38,4.89-11.3,1.73c1.29-5.11,4.49,1.36,7.95-1.69.56-2.55-8.41-1.21-7.67-7.14.57-4.51,7.9-4.74,10.54-1.93-1.71,4.12-1.86,1.72-4.19,1.27-1.4-.27-4.09.12-3,1.8Z"/>
      <rect class="cls-8" x="511.14" y="329.13" width="3.98" height="26.61" transform="translate(-102.25 299.09) rotate(-29.69)"/>
      <rect class="cls-3" x="822.06" y="388.58" width="3.84" height="23.03"/>
      <path class="cls-8" d="M526.37,351.57c-.19.31-2.59.74-2.8.55l-4.28-25.85c1.02-.37,2.66-1.16,3.23.28-.12,3.5,4.88,23.38,3.85,25.02Z"/>
      <path class="cls-8" d="M536.93,326.29c.82,1.32-4,22.55-4.27,25.82l-2.86-.47c1.93-8.52,2.5-17.72,5.1-25.87.37-.11,1.88.3,2.03.52Z"/>
      <rect class="cls-8" x="530.26" y="340.99" width="26.52" height="3.1" transform="translate(-22.33 646.79) rotate(-60.49)"/>
      <rect class="cls-8" x="538.51" y="348.13" width="26.31" height="2.64" transform="translate(-95.29 438.32) rotate(-40.17)"/>
      <circle class="cls-2" cx="823.86" cy="380.18" r="2.9"/>
      <path class="cls-9" d="M630.58,116.09h65.75l-90.68,122.58c-.74.32-14.08-5.41-14.91-6.25-.42-.43-.62-.61-.29-1.21l72.76-98.32h-66.23l82.56-111.55c1.75-.75,15.89,5.35,15.77,6.64l-64.73,88.11Z"/>
      <path class="cls-4" d="M616.67,242.26l126.45-168.85c3.16,5.37,5.99,11.09,7.92,16.99l-114.94,153.78c-2.66,1.91-15.71-1.78-19.43-1.92Z"/>
      <path class="cls-6" d="M667.53,17.27l-125.72,167.9c-1.04-3.82-8.23-14.73-6.95-18.2L648.59,15.36l.94-.5,18,2.41Z"/>
      <path class="cls-4" d="M674.59,240.67c-1.69,1.13-23.76,5.11-23.84,3.75l104.37-139.36c1.33.49,3.78,21.6,2.86,24.44l-83.39,111.17Z"/>
      <path class="cls-6" d="M634.9,15.36l-104.61,138.64c-1.21-8-3.07-16.22-2.04-24.34l82.24-109.68c7.38-3.14,16.31-4.24,24.41-4.61Z"/>
      <polygon class="cls-4" points="644.98 142.48 581.14 226.91 567.77 216.68 624.59 142.48 644.98 142.48"/>
      <polygon class="cls-6" points="649.3 106.5 704.98 33.1 718.36 43.33 669.7 106.5 649.3 106.5"/>
      <polygon class="cls-4" points="610.91 142.48 559.33 209.17 549.06 196.04 590.51 142.48 610.91 142.48"/>
      <polygon class="cls-6" points="684.33 106.5 726.8 51.34 737.47 64.53 705.21 106.5 684.33 106.5"/>
      <path class="cls-4" d="M591.23,27.35l-61.42,81.55c6.27-34.83,29.6-66.11,61.42-81.55Z"/>
      <path class="cls-4" d="M695.37,232.18l60.46-80.59c-5.77,34.25-29.37,65.39-60.46,80.59Z"/>
    </g>
  </g>
</svg>