<?xml version="1.0" encoding="UTF-8"?>
<svg id="Layer_1" data-name="Layer 1" xmlns="http://www.w3.org/2000/svg" viewBox="0 0 1018.93 434.32">
  <defs>
    <style>
      .cls-1 {
        fill: #ffab00;
      }

      .cls-2 {
        fill: #241f20;
      }

      .cls-3 {
        fill: #b77e00;
      }
    </style>
  </defs>
  <g>
    <g>
      <path class="cls-2" d="M215.06,391.08h-3.42v6.68h-3.47v-17.75h6.88c3.67,0,5.86,2.52,5.86,5.54s-2.19,5.54-5.86,5.54ZM214.88,383.1h-3.24v4.86h3.24c1.57,0,2.57-.97,2.57-2.42s-1-2.44-2.57-2.44Z"/>
      <path class="cls-2" d="M234.52,397.76l-3.47-7.08h-2.49v7.08h-3.47v-17.75h6.96c3.62,0,5.76,2.47,5.76,5.44,0,2.49-1.52,4.04-3.24,4.66l3.96,7.65h-4.01ZM231.82,383.1h-3.27v4.69h3.27c1.52,0,2.52-.97,2.52-2.34s-1-2.34-2.52-2.34Z"/>
      <path class="cls-2" d="M242.65,397.76v-17.75h11.69v3.09h-8.23v4.16h7.01v3.09h-7.01v4.31h8.23v3.09h-11.69Z"/>
      <path class="cls-2" d="M263.88,397.91c-2.69,0-4.74-.57-6.48-2.34l2.24-2.24c1.12,1.12,2.64,1.5,4.29,1.5,2.04,0,3.14-.77,3.14-2.19,0-.62-.17-1.15-.55-1.5-.35-.32-.75-.5-1.57-.62l-2.14-.3c-1.52-.22-2.64-.7-3.44-1.47-.85-.85-1.27-1.99-1.27-3.49,0-3.17,2.34-5.39,6.18-5.39,2.44,0,4.21.6,5.74,2.07l-2.19,2.17c-1.12-1.07-2.47-1.22-3.64-1.22-1.84,0-2.74,1.02-2.74,2.24,0,.45.15.92.52,1.27.35.32.92.6,1.65.7l2.09.3c1.62.23,2.64.67,3.39,1.37.95.9,1.37,2.19,1.37,3.77,0,3.44-2.87,5.38-6.58,5.38Z"/>
      <path class="cls-2" d="M274.99,397.76v-17.75h11.69v3.09h-8.23v4.16h7.01v3.09h-7.01v4.31h8.23v3.09h-11.69Z"/>
      <path class="cls-2" d="M301.82,397.76l-7.03-10.9v10.9h-3.47v-17.75h3.09l7.03,10.87v-10.87h3.46v17.75h-3.09Z"/>
      <path class="cls-2" d="M317.09,383.1v14.66h-3.47v-14.66h-4.64v-3.09h12.74v3.09h-4.64Z"/>
      <path class="cls-2" d="M325.8,397.76v-17.75h11.69v3.09h-8.23v4.16h7.01v3.09h-7.01v4.31h8.23v3.09h-11.69Z"/>
      <path class="cls-2" d="M353.24,396.06c-1.17,1.17-2.84,1.7-4.69,1.7h-6.41v-17.75h6.41c1.85,0,3.52.52,4.69,1.7,1.99,1.99,1.79,4.44,1.79,7.11s.2,5.26-1.79,7.26ZM350.82,384.2c-.6-.72-1.4-1.1-2.59-1.1h-2.62v11.57h2.62c1.2,0,1.99-.37,2.59-1.1.65-.8.75-2.07.75-4.76s-.1-3.82-.75-4.61Z"/>
      <path class="cls-2" d="M374.3,397.76h-7.43v-17.75h7.13c3.47,0,5.49,1.95,5.49,4.99,0,1.97-1.3,3.24-2.19,3.66,1.07.5,2.44,1.62,2.44,3.99,0,3.32-2.27,5.11-5.43,5.11ZM373.73,383.1h-3.39v4.09h3.39c1.47,0,2.29-.82,2.29-2.04s-.82-2.04-2.29-2.04ZM373.95,390.3h-3.62v4.36h3.62c1.57,0,2.32-1,2.32-2.19s-.75-2.17-2.32-2.17Z"/>
      <path class="cls-2" d="M391.31,390.48v7.28h-3.44v-7.28l-5.34-10.47h3.77l3.32,7.16,3.27-7.16h3.77l-5.34,10.47Z"/>
    </g>
    <path class="cls-2" d="M477.82,343.62c.88-.19,1.77-.34,2.68-.47l4.22,24.08c-.92.08-1.82.24-2.68.47l-4.21-24.08ZM476.74,370.19c.88-.63,1.83-1.18,2.84-1.62l-12.14-21.17c-.97.51-1.9,1.06-2.82,1.65l12.12,21.14ZM469.85,383.53c0-.91.08-1.8.22-2.67h-24.16c-.05.84-.09,1.69-.09,2.55,0,.8.03,1.6.08,2.38h24.11c-.1-.74-.16-1.5-.16-2.27M502.6,383.53c0,9.04-7.33,16.37-16.37,16.37-8.1,0-14.82-5.88-16.14-13.61l-22.7,8.33c.5,1.77,1.12,3.5,1.85,5.16l22.56-8.27-18.42,15.58c1.17,1.64,2.45,3.18,3.84,4.62l17.22-14.56-11.23,19.68c1.79,1.25,3.67,2.36,5.65,3.31l10.56-18.49-3.68,21.04c2.25.61,4.59,1.02,6.98,1.23l3.44-19.66,3.45,19.67c2.5-.21,4.94-.64,7.3-1.29l-3.2-18.25,9.21,16.06c2.52-1.15,4.9-2.55,7.12-4.18l-8.45-14.73,12.92,10.91c2.06-2.03,3.91-4.29,5.5-6.72l-11.55-9.75,14.14,5.18c1.31-2.71,2.32-5.6,3.01-8.61l-12.41-4.54h13.19c.17-1.52.27-3.06.27-4.62,0-1.81-.13-3.58-.36-5.33h-24.6c.6,1.7.93,3.53.93,5.44M470.27,379.84c.33-1.45.86-2.83,1.54-4.1l-22.74-8.34c-.57,1.34-1.07,2.72-1.5,4.13l22.69,8.31ZM516.67,356.68l-18.51,15.63c.46.48.88.99,1.28,1.53l18.51-15.63c-.41-.52-.83-1.04-1.27-1.54M507.5,348.83c-.65-.41-1.31-.8-1.98-1.17l-12.13,21.14c.7.34,1.36.72,2,1.15l12.12-21.12ZM475.12,371.5l-18.57-15.69c-.86.94-1.68,1.92-2.45,2.94l18.52,15.66c.71-1.07,1.55-2.04,2.49-2.91M487.86,367.24c.83.08,1.64.23,2.42.43l4.22-24.07c-.8-.17-1.61-.31-2.42-.43l-4.22,24.07ZM750.21,401.8h3.61v19.87c0,8.44-3.87,12.65-11.61,12.65-.81,0-1.63-.05-2.46-.15-.83-.1-1.61-.24-2.35-.41-.74-.17-1.42-.38-2.04-.61-.62-.23-1.12-.49-1.5-.78l.96-3c1.77,1.13,4.22,1.7,7.35,1.7,2.73,0,4.73-.72,6.02-2.17,1.29-1.45,1.93-3.73,1.93-6.83v-2.52c-.71,1.22-1.64,2.21-2.78,2.96-1.51.99-3.26,1.48-5.26,1.48-1.51,0-2.89-.28-4.13-.83-1.25-.55-2.32-1.32-3.22-2.3-.9-.99-1.6-2.18-2.09-3.57-.49-1.39-.74-2.93-.74-4.61s.27-3.13.8-4.52c.54-1.39,1.28-2.6,2.24-3.63.96-1.03,2.08-1.84,3.37-2.43,1.29-.59,2.69-.89,4.2-.89,1.88,0,3.55.51,5,1.54,1.06.75,1.92,1.72,2.61,2.89l.09-3.83ZM748.27,418.39c.65-.71,1.17-1.55,1.54-2.52.38-.97.57-2.04.57-3.2,0-1.22-.17-2.33-.52-3.35-.35-1.01-.84-1.88-1.48-2.59-.64-.71-1.41-1.26-2.33-1.65-.91-.39-1.92-.59-3.02-.59s-2.06.2-2.96.61c-.9.41-1.67.97-2.33,1.7-.65.72-1.16,1.59-1.52,2.59-.36,1-.54,2.09-.54,3.28,0,2.46.66,4.41,1.98,5.85,1.32,1.44,3.11,2.15,5.37,2.15,1.04,0,2.01-.2,2.91-.61.9-.41,1.67-.96,2.33-1.67M644.39,378.4c-1.15.2-2.33.3-3.54.3-5.65,0-8.48-2.94-8.48-8.83v-8h-3.78v-6.31h3.78v-5.78h7.83v5.78h7.31l-1.96,6.31h-5.35v6.65c0,1.36.22,2.31.65,2.85.44.54,1.17.81,2.22.81,1.19,0,2.35-.22,3.48-.65l.78,6.04c-.81.35-1.79.62-2.94.83M635.1,403.58c1.35,1.6,2.02,3.9,2.02,6.92v12.74h-3.7v-12.09c0-2.32-.41-4.02-1.22-5.09-.81-1.07-2.09-1.61-3.83-1.61-1.91,0-3.4.63-4.46,1.89-1.06,1.26-1.59,3.02-1.59,5.28v11.61h-3.7v-32.18h3.7v14.25c.52-1.11,1.26-2.02,2.22-2.71,1.3-.94,2.87-1.41,4.7-1.41,2.55,0,4.5.8,5.85,2.39M611.92,419.58l1.35,2.74c-.93.52-1.99.93-3.2,1.22-1.2.29-2.41.43-3.63.43-1.8,0-3.43-.26-4.89-.78-1.46-.52-2.71-1.28-3.74-2.26-1.03-.99-1.82-2.17-2.37-3.57-.55-1.39-.83-2.94-.83-4.65s.28-3.27.85-4.67c.56-1.41,1.35-2.62,2.37-3.63,1.01-1.02,2.24-1.8,3.67-2.37,1.44-.57,3.01-.85,4.72-.85,2.29,0,4.49.58,6.61,1.74l-1.44,2.7c-.75-.38-1.56-.66-2.43-.85-.87-.19-1.73-.28-2.57-.28-2.46,0-4.41.72-5.85,2.17-1.44,1.45-2.15,3.41-2.15,5.87s.73,4.54,2.2,5.98c1.46,1.44,3.49,2.15,6.07,2.15,1.68,0,3.43-.36,5.26-1.09M787.47,404.08c-.84-.91-1.86-1.62-3.07-2.13-1.2-.51-2.54-.76-4.02-.76s-2.9.28-4.17.85c-1.28.57-2.38,1.36-3.3,2.39-.93,1.03-1.65,2.25-2.18,3.65-.52,1.41-.78,2.94-.78,4.59,0,3.59,1.02,6.38,3.07,8.35,2.04,1.97,4.92,2.96,8.63,2.96,1.59,0,3.11-.19,4.57-.57,1.45-.38,2.72-.9,3.83-1.57l-1.3-2.78c-2.32,1.07-4.62,1.61-6.91,1.61-5.04,0-7.76-2.31-8.2-6.91h16.41c.03-.29.05-.55.07-.78.01-.23.02-.65.02-1.26,0-1.59-.23-3.04-.69-4.33-.46-1.29-1.12-2.39-1.96-3.3M780.17,404.36c3.71,0,5.81,1.86,6.3,5.57.06.23.09.51.11.83,0,.02,0,.06,0,.09h-12.94c.21-1.7.76-3.11,1.67-4.24,1.2-1.49,2.82-2.24,4.85-2.24M587.14,404.14c-.86-.93-1.88-1.65-3.07-2.17-1.19-.52-2.49-.78-3.91-.78-1.57,0-3,.28-4.3.85-1.3.57-2.43,1.36-3.37,2.39-.94,1.03-1.67,2.26-2.2,3.7-.52,1.44-.78,3.01-.78,4.72,0,3.51,1.04,6.24,3.13,8.2,2.09,1.96,5.02,2.94,8.78,2.94,1.54,0,3.02-.17,4.46-.52,1.43-.35,2.65-.83,3.63-1.44l-1.39-2.7c-2.23.9-4.41,1.35-6.52,1.35-2.76,0-4.86-.66-6.31-1.98-1.21-1.1-1.9-2.69-2.11-4.76h16.54c.03-.29.05-.55.07-.78.01-.23.02-.65.02-1.26,0-1.59-.23-3.05-.7-4.37-.46-1.32-1.12-2.44-1.98-3.37M579.94,404.36c1.19,0,2.19.21,3,.63.81.42,1.46.96,1.96,1.63.49.67.85,1.43,1.06,2.31.17.68.26,1.38.29,2.09h-13.05c.21-1.82.78-3.31,1.73-4.46,1.22-1.46,2.88-2.2,5-2.2M559.07,367.31l5.78,10.7h9.57l-8.22-13.09c1.59-.93,2.83-2.17,3.7-3.72.87-1.55,1.3-3.24,1.3-5.07s-.3-3.3-.89-4.7c-.6-1.39-1.44-2.57-2.54-3.52-1.1-.96-2.45-1.69-4.05-2.2-1.59-.51-3.41-.76-5.44-.76h-11.91v33.05h8.35v-10.65h2.39l1.96-.04ZM554.72,351.57h2.48c3.77,0,5.65,1.51,5.65,4.52s-1.91,4.65-5.74,4.65h-2.39v-9.18ZM571.88,394.45h-11.31v28.79h-3.91v-28.79h-11.31v-3.35h26.52v3.35ZM810.75,417.49c0,2-.79,3.58-2.37,4.74-1.58,1.16-3.7,1.74-6.37,1.74-1.39,0-2.77-.2-4.13-.59-1.36-.39-2.45-.89-3.26-1.5l1.52-2.65c1.88,1.1,3.84,1.65,5.87,1.65,1.59,0,2.83-.28,3.7-.83.87-.55,1.3-1.33,1.3-2.35,0-.46-.06-.87-.2-1.22-.13-.35-.39-.66-.76-.93-.38-.28-.9-.54-1.57-.81-.67-.26-1.54-.55-2.61-.87-2.35-.7-4.03-1.55-5.04-2.57-1.02-1.02-1.52-2.35-1.52-4,0-1.85.72-3.34,2.15-4.46,1.43-1.12,3.37-1.67,5.81-1.67,1.1,0,2.28.17,3.52.5,1.25.33,2.29.76,3.13,1.28l-1.44,2.65c-1.8-.9-3.54-1.35-5.22-1.35-2.93,0-4.39.88-4.39,2.65,0,.9.33,1.62,1,2.15.67.54,1.83,1.05,3.48,1.54,1.39.4,2.56.83,3.5,1.26.94.43,1.7.92,2.28,1.46.58.54.99,1.15,1.24,1.83.25.68.37,1.46.37,2.33M598.81,355.57h-7.35l-.09,2.61c-.67-1.04-1.56-1.85-2.68-2.44-1.12-.58-2.35-.87-3.72-.87-1.48,0-2.86.3-4.13.91-1.28.61-2.38,1.45-3.33,2.52-.94,1.07-1.67,2.34-2.2,3.8-.52,1.46-.78,3.05-.78,4.76s.25,3.33.76,4.78c.51,1.45,1.21,2.7,2.11,3.74.9,1.04,1.97,1.86,3.22,2.43,1.25.58,2.62.87,4.13.87s2.75-.28,3.89-.85c1.15-.56,2.05-1.37,2.72-2.41l.09,2.57h7.35v-22.44ZM590.16,370.38c-.84.91-1.93,1.37-3.26,1.37s-2.43-.46-3.28-1.37c-.85-.91-1.28-2.11-1.28-3.59s.43-2.68,1.28-3.59c.86-.91,1.95-1.37,3.28-1.37s2.42.46,3.26,1.37c.84.91,1.26,2.11,1.26,3.59s-.42,2.67-1.26,3.59M724.24,404.45c-1-1.01-2.18-1.81-3.55-2.39-1.36-.58-2.84-.87-4.43-.87s-3.07.29-4.44.87c-1.36.58-2.54,1.38-3.54,2.39-1,1.02-1.78,2.22-2.35,3.61-.56,1.39-.85,2.9-.85,4.52s.28,3.13.85,4.52c.56,1.39,1.35,2.6,2.35,3.61,1,1.01,2.18,1.81,3.54,2.39,1.36.58,2.84.87,4.44.87s3.07-.29,4.43-.87c1.36-.58,2.54-1.38,3.55-2.39,1-1.01,1.78-2.22,2.35-3.61.57-1.39.85-2.9.85-4.52s-.28-3.13-.85-4.52c-.57-1.39-1.35-2.59-2.35-3.61M723.13,415.91c-.35,1-.85,1.85-1.5,2.54-.65.7-1.43,1.24-2.33,1.63-.9.39-1.91.59-3.04.59s-2.14-.2-3.04-.59c-.9-.39-1.67-.94-2.33-1.63-.65-.7-1.15-1.54-1.5-2.54-.35-1-.52-2.11-.52-3.33s.17-2.33.52-3.33c.35-1,.85-1.85,1.5-2.54.65-.69,1.43-1.24,2.33-1.63.9-.39,1.91-.59,3.04-.59s2.15.2,3.04.59c.9.39,1.67.94,2.33,1.63.65.7,1.15,1.54,1.5,2.54.35,1,.52,2.11.52,3.33s-.18,2.33-.52,3.33M660.58,403.56c1.33,1.58,2,3.89,2,6.94v12.74h-3.7v-12.09c0-2.32-.4-4.02-1.2-5.09-.8-1.07-2.07-1.61-3.8-1.61-1.91,0-3.4.63-4.46,1.89-1.06,1.26-1.59,3.02-1.59,5.28v11.61h-3.7v-21.44h3.48l.06,3.81c.5-1.18,1.23-2.15,2.21-2.89,1.33-1.01,2.96-1.52,4.87-1.52,2.55,0,4.49.79,5.83,2.37M722.34,358.27c-1.1-1.07-2.41-1.91-3.91-2.5-1.51-.59-3.15-.89-4.91-.89s-3.41.3-4.91.89c-1.51.6-2.81,1.43-3.91,2.5-1.1,1.07-1.96,2.33-2.59,3.78-.62,1.45-.94,3.03-.94,4.74s.31,3.29.94,4.74c.62,1.45,1.49,2.71,2.59,3.78,1.1,1.07,2.41,1.91,3.91,2.5,1.51.59,3.14.89,4.91.89s3.4-.3,4.91-.89c1.51-.59,2.81-1.43,3.91-2.5,1.1-1.07,1.96-2.33,2.59-3.78.62-1.45.94-3.03.94-4.74s-.31-3.29-.94-4.74c-.62-1.45-1.49-2.71-2.59-3.78M717.08,370.66c-.9.98-2.09,1.48-3.57,1.48s-2.67-.49-3.57-1.48c-.9-.99-1.35-2.28-1.35-3.87s.45-2.88,1.35-3.87c.9-.99,2.09-1.48,3.57-1.48s2.67.49,3.57,1.48c.9.99,1.35,2.28,1.35,3.87s-.45,2.89-1.35,3.87M698.47,366.1c0-1.74-.25-3.3-.76-4.67-.51-1.38-1.24-2.55-2.2-3.52-.96-.97-2.12-1.72-3.48-2.24-1.36-.52-2.89-.78-4.57-.78s-3.33.29-4.76.87c-1.43.58-2.67,1.39-3.72,2.44-1.04,1.04-1.85,2.3-2.41,3.76-.56,1.46-.85,3.08-.85,4.85s.31,3.48.94,4.96c.62,1.48,1.52,2.73,2.7,3.76,1.17,1.03,2.6,1.82,4.26,2.37,1.67.55,3.54.83,5.63.83,1.74,0,3.41-.2,5.02-.61,1.61-.41,2.98-.99,4.11-1.74l-2.48-5c-.93.41-1.94.72-3.02.93-1.09.22-2.06.33-2.93.33-3.57,0-5.74-1.27-6.52-3.83h14.78c.17-.72.26-1.62.26-2.7M683.29,364.31c.49-2.49,1.84-3.74,4.04-3.74,1.07,0,1.94.33,2.61.98.67.65,1.07,1.57,1.22,2.76h-7.87ZM749.19,357.27c1.32,1.6,1.98,3.96,1.98,7.09v13.65h-7.83v-12.18c0-2.67-1-4-3-4-1.1,0-1.93.37-2.5,1.11-.56.74-.85,1.8-.85,3.2v11.87h-7.83v-22.44h7.65l.09,2.78c.58-1.1,1.43-1.96,2.54-2.57,1.12-.61,2.41-.91,3.89-.91,2.58,0,4.53.8,5.85,2.39M760.67,401.8h3.7v21.44h-3.7v-21.44ZM687.33,404.45c-1-1.01-2.18-1.81-3.54-2.39-1.36-.58-2.84-.87-4.44-.87s-3.07.29-4.43.87c-1.36.58-2.54,1.38-3.54,2.39-1,1.02-1.78,2.22-2.35,3.61-.56,1.39-.85,2.9-.85,4.52s.28,3.13.85,4.52c.57,1.39,1.35,2.6,2.35,3.61,1,1.01,2.18,1.81,3.54,2.39,1.36.58,2.84.87,4.43.87s3.07-.29,4.44-.87c1.36-.58,2.54-1.38,3.54-2.39,1-1.01,1.78-2.22,2.35-3.61.57-1.39.85-2.9.85-4.52s-.28-3.13-.85-4.52c-.56-1.39-1.35-2.59-2.35-3.61M686.22,415.91c-.35,1-.85,1.85-1.5,2.54-.65.7-1.43,1.24-2.33,1.63-.9.39-1.91.59-3.04.59s-2.14-.2-3.04-.59c-.9-.39-1.67-.94-2.33-1.63-.65-.7-1.15-1.54-1.5-2.54-.35-1-.52-2.11-.52-3.33s.17-2.33.52-3.33c.35-1,.85-1.85,1.5-2.54.65-.69,1.43-1.24,2.33-1.63.9-.39,1.91-.59,3.04-.59s2.15.2,3.04.59c.9.39,1.67.94,2.33,1.63.65.7,1.15,1.54,1.5,2.54.35,1,.52,2.11.52,3.33s-.17,2.33-.52,3.33M664.55,378.01v-12.18c0-2.67-1-4-3-4-1.1,0-1.93.37-2.5,1.11-.57.74-.85,1.8-.85,3.2v11.87h-7.83v-33.05h7.83v13c.64-.98,1.51-1.75,2.61-2.28,1.1-.54,2.35-.8,3.74-.8,2.58,0,4.53.8,5.85,2.39,1.32,1.6,1.98,3.96,1.98,7.09v13.65h-7.83ZM764.32,392.1c.46.49.7,1.12.7,1.87s-.23,1.38-.7,1.87c-.46.49-1.07.74-1.83.74s-1.36-.25-1.83-.74c-.46-.49-.69-1.12-.69-1.87s.23-1.38.69-1.87c.46-.49,1.07-.74,1.83-.74s1.36.25,1.83.74M695.98,391.06h3.7v32.18h-3.7v-32.18ZM604.82,387.8h7.92l13.97-32.22h-8.4l-4.3,11.96-4.56-11.96h-8.57l9.22,21.17-5.28,11.05Z"/>
  </g>
  <g>
    <g>
      <polygon class="cls-1" points="320.09 66.63 334.75 47.51 309.62 54.36 309.63 94.34 283.35 100.22 283.57 280.93 336.07 280.93 320.04 264.89 320.09 66.63"/>
      <path class="cls-1" d="M461.33,60.19l-19.84,4.48-.17,85.02,21.97-3.05c9.32-1.42,16.21-9.43,16.22-18.86.02-19.39.04-38.01.06-53.95.01-9.6-8.85-15.68-18.24-13.64Z"/>
      <path class="cls-1" d="M441.22,188.36c-.06,30.95-.12,61.03-.18,92.56h34.97l-24.85-93.52-9.94.96Z"/>
      <path class="cls-1" d="M400.85,29.48l-.1,44.31-50.23,11.32c-3.5.79-6.01,3.92-6.02,7.52l-.05,48.84,44.95-7.62-.09,45.8-44.9,5.01-.05,46.49c0,4.4,3.69,7.93,8.08,7.7l47.96-2.51-.1,44.58h11.45l.57-254.57-11.47,3.13Z"/>
      <polygon class="cls-1" points="234.29 111.2 234.16 74.94 224.31 77.63 225.12 280.93 260.97 280.93 260.57 105.32 234.29 111.2"/>
      <polygon class="cls-1" points="0 138.8 0 156.5 14.96 134.72 0 138.8"/>
      <polygon class="cls-1" points="0 280.93 16.2 280.93 0 262.06 0 280.93"/>
      <polygon class="cls-1" points="200.42 84.14 169.34 92.62 200.96 189.4 200.42 84.14"/>
      <polygon class="cls-1" points="72.94 131.84 85.87 115.38 48.76 125.5 64.07 141.52 64.23 168.3 43.87 172.25 43.77 154.03 20.18 159.3 20.45 255.05 44.28 253.62 44.19 235.44 64.65 233.8 64.81 259 48.85 280.93 87.37 280.93 73.95 267.52 72.94 131.84"/>
      <polygon class="cls-1" points="170.42 280.93 201.67 280.93 169.76 175.49 170.42 280.93"/>
      <path class="cls-1" d="M135.76,101.78l.23,31.57-37.85,8.44c-2.49.56-4.27,2.79-4.25,5.35l.25,34.78,32.51-5.45.23,32.4-32.53,3.62.24,33.19c.02,3.08,2.6,5.52,5.67,5.37l36.54-1.76.23,31.66h9.65l-1.27-181.79-9.67,2.64Z"/>
      <polygon class="cls-3" points="766.42 243.82 759.92 280.93 815.18 280.93 807.87 245.63 766.42 243.82"/>
      <path class="cls-3" d="M784.97,135.53c-4.86,27.72-7.28,42.93-12.11,71.73l27.67,2.66c-5.52-28.67-8.28-44.37-13.83-74.06-.69-.14-1.04-.2-1.74-.34Z"/>
      <path class="cls-3" d="M975.76,189.93c11.87,1.94,17.81,2.91,29.67,4.85,0,10.25.01,16.61.02,26.86-11.84-1.31-17.77-2-29.62-3.31.04,14.15.05,19.97.09,34.5,16.64.74,24.96,1.1,41.8,1.84v-90.86s-41.61-9.36-41.61-9.36c-.14,14.91-.21,20.95-.35,35.48Z"/>
      <polygon class="cls-3" points="598.79 24.6 625.95 65.1 626.36 105.46 590.67 98.53 590.42 67.81 544.14 57.34 544.38 120.55 597.12 129.05 627.03 171.52 627.78 246.39 599.98 280.93 682.92 280.93 680.66 87.82 640.54 78.7 640.06 35.86 598.79 24.6"/>
      <polygon class="cls-3" points="800.48 79.6 843.4 280.93 869.18 280.93 847.42 253.94 846.08 117.64 866.42 97.59 800.48 79.6"/>
      <polygon class="cls-3" points="749.49 65.7 749.98 103.61 709.59 94.41 712.2 280.93 731.38 280.93 769.77 71.23 749.49 65.7"/>
      <path class="cls-3" d="M963.7,280.93l-13.82-13.74-.54-132.65,13.83-10.6-46.87-12.74,20.67,28.17.12,25.85-27.44-5.29c-.05-7.86-.08-12.51-.13-20.43l-35.93-8.07c.33,38.83.67,78.73,1,117.56l35.44,1.7-.19-39.69-20.81-2.31-.23-32.6,48.43,7.83.3,73.16c-8.34,8.92-13.15,14.16-21.46,23.86h47.61Z"/>
    </g>
    <polygon class="cls-1" points="486.62 6.09 507.88 35.71 507.88 142.26 482.71 184.37 508.95 280.93 508.95 0 486.62 6.09"/>
    <polygon class="cls-3" points="508.95 280.93 537.02 280.93 509 242.4 508.95 280.93"/>
    <path class="cls-3" d="M591.27,175.56c-20.91-2.28-30.82-3.49-51.64-5.74l-29.6-46.38V36.1l25.31-28.8-26.39-7.3.04,198.06,35.7,2.91.13,32.15,46.92,2.29c-.19-23.65-.28-35.71-.47-59.84Z"/>
    <g>
      <path class="cls-3" d="M1003.53,119.35c-1.73-1.02-2.15-1.41-2.13-2.26v-.04c.02-.63.48-1.01,1.33-.78.85.23,1.72.94,2.59,1.96l1.22-1.8c-.99-1.31-2.23-2.24-3.71-2.65-2.07-.57-3.58.58-3.65,2.95v.04c-.08,2.59,1.22,3.65,3.23,4.82,1.67.97,2.01,1.42,1.99,2.13v.04c-.02.75-.59,1.08-1.5.86-1.15-.27-2.09-1.11-2.97-2.3l-1.37,1.71c1.17,1.68,2.7,2.72,4.23,3.07,2.18.5,3.75-.57,3.83-3.09v-.04c.07-2.21-1.06-3.43-3.09-4.63"/>
      <polygon class="cls-3" points="1016.53 117.71 1013.72 122.21 1011.22 116.27 1008.82 115.62 1008.45 128.21 1010.63 128.7 1010.87 120.6 1013.53 126.54 1013.59 126.56 1016.59 122 1016.34 129.99 1018.55 130.48 1018.93 118.36 1016.53 117.71"/>
    </g>
  </g>
</svg>