<?xml version="1.0" encoding="UTF-8"?>
<svg id="Layer_1" data-name="Layer 1" xmlns="http://www.w3.org/2000/svg" xmlns:xlink="http://www.w3.org/1999/xlink" viewBox="0 0 648.11 717.42">
  <defs>
    <style>
      .cls-1 {
        fill: none;
      }

      .cls-2 {
        fill: #fff;
      }

      .cls-3 {
        fill: #f8e448;
      }

      .cls-4 {
        fill: #9edae9;
      }

      .cls-5 {
        fill: #0083ae;
      }

      .cls-6 {
        clip-path: url(#clippath);
      }
    </style>
    <clipPath id="clippath">
      <path class="cls-1" d="M44.18,530.89c.71,1.22,2.81,4.07,7.06,4.07h545.63c4.24,0,6.35-2.85,7.06-4.07.71-1.22,2.13-4.47.02-8.15l-86.94-151.55-1.33-2.31-92.69-161.56-1.33-2.31-90.53-157.8c-2.12-3.7-5.65-4.1-7.07-4.1s-4.95.4-7.07,4.1l-90.53,157.8-1.33,2.32-92.69,161.56-1.33,2.32-86.94,151.55c-2.11,3.68-.69,6.92.02,8.15Z"/>
    </clipPath>
  </defs>
  <g>
    <path class="cls-2" d="M51.24,578.06h545.63c18.23,0,35.22-9.8,44.36-25.57,9.13-15.77,9.18-35.39.11-51.2L368.52,25.75C359.4,9.87,342.37,0,324.05,0c-18.31,0-35.35,9.87-44.46,25.75L6.77,501.29c-9.07,15.81-9.02,35.43.11,51.2,9.13,15.77,26.13,25.57,44.36,25.57Z"/>
    <path d="M324.05,22.99c10.25,0,19.42,5.31,24.52,14.21l272.82,475.53c5.08,8.85,5.05,19.41-.06,28.24-5.12,8.83-14.26,14.1-24.47,14.1H51.24c-10.2,0-19.35-5.27-24.47-14.1-5.11-8.83-5.14-19.39-.06-28.24L299.53,37.19c5.1-8.9,14.27-14.21,24.52-14.21ZM596.87,534.95c4.24,0,6.35-2.85,7.06-4.07.71-1.22,2.13-4.47.02-8.15L331.13,47.2c-2.12-3.7-5.65-4.1-7.07-4.1s-4.95.4-7.07,4.1L44.16,522.74c-2.11,3.68-.69,6.92.02,8.15.71,1.22,2.81,4.07,7.06,4.07h545.63Z"/>
    <g class="cls-6">
      <path class="cls-4" d="M19.45,565.06c.77,3.91,3.06,13,7.68,13h593.85c4.62,0,6.91-9.1,7.68-13.01.77-3.91,2.32-14.28.02-26.04L534.06,25.84l-1.45-7.4H115.5s-1.45,7.4-1.45,7.4L19.43,539.01c-2.3,11.77-.75,22.13.02,26.04Z"/>
      <path class="cls-5" d="M217.02,158.97c14.14,11.76,44.16,16.33,66.8,10.17,14.46-3.93,24.94-11.3,37.62-16.86,12.68-5.57,30.6-9.33,44.53-4.82,10.4,3.37,15.34,10.3,24.03,14.98,7.8,4.2,18.76,6.44,29.49,6.05,3.52-.13,7.13-.53,10.53,0,2.99.46,5.51,1.58,7.87,2.72,42.24,20.36,61.44,53.44,57.6,84.77-.94,7.64-3.19,15.37-9.31,22.19-8.35,9.32,60.51,26.96,46.16,33.53-16.55,7.57-1.5,80.21-22.51,82.1-17.26,1.56-146.69,144.23-163.3,141.15-32.56-6.03-84.44-144.25-115.68-152.2-24.29-6.18-55.97-39.16-79.98-45.68-3.84-1.04,15.69-65.92,13.26-67.9-2.22-1.81-2.81-4.09-3.12-6.28-2.41-16.97,8.3-33.55,18.84-49.5,7.16-10.84,14.34-21.69,23.51-32.03,5.71-6.44,12.33-12.97,12.86-20.17"/>
      <path class="cls-3" d="M433.01,86.01c-8.93-7.33-19.79-15.13-30.98-12.25-5.34,1.38-9.77,5.05-13.82,8.79-7.08,6.55-13.85,13.8-22.61,17.84-8.76,4.04-20.34,3.95-26.86-3.15-3.27-3.56-5.27-8.72-9.8-10.38-5.52-2.02-11.08,2.31-16.41,4.8-15.96,7.45-34.36-1.66-49.57-10.55-2.34-1.37-4.87-2.96-5.67-5.55-.65-2.1.01-4.37.83-6.4,3.78-9.42,10.79-17.13,17.75-24.52,21.7-23.05,47.64-46.78,79.3-47.31,9.8-.17,20.38,2.47,26.53,10.1,3.06,3.8,4.75,8.49,6.39,13.09,5.79,16.24,11.57,32.48,17.36,48.72"/>
      <path d="M217.47,153.25c10.8,22.81,21.61,45.63,32.41,68.44,2.01,4.25,4.2,8.7,8.12,11.29,3.92,2.59,10.11,2.34,12.45-1.73,1.23-2.15,1.25-5.02,3.1-6.67,2.18-1.95,5.65-1.1,8.19.36,11.95,6.89,14.85,22.39,20.25,35.08,5.14,12.07,13.94,23.06,25.97,28.3,12.02,5.24-1.4,55.86,7.67,46.38,7.07-7.38,38.21-70.2,40.23-80.21,1.55-7.66,3.1-15.31,4.65-22.97.88-4.33,1.79-8.76,4.15-12.5s6.48-6.69,10.88-6.36c2.54.19,4.92,1.43,7.46,1.59,8.55.55,13.21-10.22,21.12-13.49,5.27,4.72,8.77,11.11,11.32,17.71,10.05,26.04,100.5,16.18,95.24,43.59-1.45,7.53,36.91,53.52,33.78,60.52-3.34,7.47-.25,70.53-5.35,76.94-9.48,11.9,110.41,162.9,99.62,173.62-10.86,10.8-246.35,2.13-261.41,4.92-10.04,1.86-404.13,6.95-409.33-10.33-14.56-48.46,192.45-383.27,198.09-433.56.23-2.02.6-4.26,2.22-5.49,1.23-.93,2.9-1.04,4.43-.88,10.1,1.06,16.45,11.13,21.04,20.19"/>
    </g>
    <g>
      <path class="cls-5" d="M189.05,299.18c1.13-19.32,28.36-12.53,27.95,4.25-.22,8.84-7.88,12.46-15.32,10.75-7.68-1.76-11.82-6.86-12.63-15ZM205.99,292.25c-9.28-.17-2.09,16.2,3.37,17.63,6.85,1.79,5.46-17.57-3.37-17.63Z"/>
      <path class="cls-5" d="M471.82,469.94c-2.33-3.18-4.13-8.02-.55-11.18,2.54-2.24,6.72-2.1,9.33-.03,6.87,5.43-2.05,17.57-8.78,11.4h-.02c0-.06,0-.13,0-.2h.02Z"/>
      <path class="cls-5" d="M525.63,528.23c-1.91-2.62-3.39-6.59-.45-9.18,2.09-1.84,5.52-1.72,7.66-.03,5.64,4.46-1.69,14.43-7.21,9.36h-.02s0-.1,0-.16h.02Z"/>
      <path class="cls-5" d="M229.87,268.92c-.07,9.56,12.92,9.67,12.35.21-.45-7.57-12.29-8.29-12.35-.21ZM225.62,262.28c.13.4.31.48.54.24-.12-.41-.3-.49-.54-.24Z"/>
      <path class="cls-5" d="M484.75,505.72c-5.39-.17-9.4-4.17-9.09-9.72.34-6.2,5.39-8.46,10.92-8.07,4.97.35,8.9,3.34,8.76,8.76-.16,5.83-5.37,8.76-10.58,9.02ZM483.7,496.64c1.78,2.18,8.39,6.16,7.33.17-.73-4.12-7.35-5.02-7.33-.17Z"/>
      <path class="cls-5" d="M153.06,446.43c2.36-3.38,6.59-4.28,10.01-1.77,3.83,2.81,3.16,6.98.61,10.35-2.3,3.04-5.85,4.31-9.26,1.95-3.66-2.53-3.36-7.09-1.36-10.53ZM159.32,449.54c-2.14.23-7.44,2.8-3.17,4.62,2.94,1.25,6.28-2.61,3.17-4.62Z"/>
      <path class="cls-5" d="M199,331.29c0-.1,0-.21,0-.31,0,0-.03-.02-.03-.02,0,.12,0,.24,0,.36l.03-.02Z"/>
    </g>
    <g>
      <path class="cls-2" d="M164.21,404.43c-1.14,0-2.07-.93-2.07-2.07v-51.16c0-1.14.93-2.07,2.07-2.07h10.35c1.14,0,2.07.93,2.07,2.07v51.16c0,1.14-.93,2.07-2.07,2.07h-10.35Z"/>
      <path class="cls-2" d="M188.01,419.13c-1.14,0-2.07-.93-2.07-2.07v-65.86c0-1.14.93-2.07,2.07-2.07h12.32c1.35,0,2.17.62,2.59,1.86l14.18,42.43c.1.52.93.52.93-.21v-22.51c0-1.14.93-2.07,2.07-2.07h10.35c1.14,0,2.07.93,2.07,2.07v55.52c0,1.14-.93,2.07-2.07,2.07h-12.21c-1.45,0-2.38-.62-2.79-1.76l-14.08-46.15c-.1-.52-.93-.52-.93.21v36.46c0,1.14-.93,2.07-2.07,2.07h-10.35Z"/>
      <path class="cls-2" d="M253.73,421.58c-1.14,0-2.07-.93-2.07-2.07v-54.85c0-.72-.31-1.04-1.03-1.04h-29.72c-1.14,0-2.07-.93-2.07-2.07v-10.35c0-1.14.93-2.07,2.07-2.07h59.22c1.14,0,2.07.93,2.07,2.07v10.35c0,1.14-.93,2.07-2.07,2.07h-12.94c-.72,0-1.03.31-1.03,1.04v54.85c0,1.14-.93,2.07-2.07,2.07h-10.35Z"/>
      <path class="cls-2" d="M306,422.72c-5.38,0-10.04-1.24-13.87-3.73-3.83-2.48-6.73-5.8-8.59-10.04-1.97-4.24-2.9-12.11-2.9-23.6s.93-19.35,2.9-23.6c3.73-8.38,11.69-13.77,22.46-13.77s18.73,5.38,22.46,13.77c1.97,4.24,2.9,12.11,2.9,23.6s-.93,19.35-2.9,23.6c-1.86,4.24-4.76,7.56-8.59,10.04-3.83,2.48-8.49,3.73-13.87,3.73ZM306,408.12c4.55,0,7.55-1.66,9.11-4.97.93-2.17,1.45-8.07,1.45-17.8s-.52-15.63-1.45-17.8c-1.55-3.31-4.55-4.97-9.11-4.97s-7.56,1.66-9.11,4.97c-.93,2.17-1.45,8.07-1.45,17.8s.52,15.63,1.45,17.8c1.55,3.31,4.55,4.97,9.11,4.97Z"/>
      <path class="cls-2" d="M363.96,450.56c-1.14,0-2.07-.93-2.07-2.07v-83.84c0-.72-.31-1.04-1.03-1.04h-15.01c-1.14,0-2.07-.93-2.07-2.07v-10.35c0-1.14.93-2.07,2.07-2.07h58.79c1.14,0,2.07.93,2.07,2.07v10.35c0,1.14-.93,2.07-2.07,2.07h-27.22c-.72,0-1.03.31-1.03,1.04v83.84c0,1.14-.93,2.07-2.07,2.07h-10.35Z"/>
      <path class="cls-2" d="M395.53,421.58c-1.14,0-2.07-.93-2.07-2.07v-47.85c0-1.14.93-2.07,2.07-2.07h10.35c1.14,0,2.07.93,2.07,2.07v10c0,.72.31,1.03,1.03,1.03h15.52c.72,0,1.03-.31,1.03-1.03v-30.46c0-1.14.93-2.07,2.07-2.07h10.35c1.14,0,2.07.93,2.07,2.07v77.11c0,1.14-.93,2.07-2.07,2.07h-10.35c-1.14,0-2.07-.93-2.07-2.07v-30.09c0-.72-.31-1.04-1.03-1.04h-15.52c-.72,0-1.03.31-1.03,1.04v21.29c0,1.14-1.35,2.07-2.59,2.07h-9.83Z"/>
      <path class="cls-2" d="M451.42,421.58c-1.14,0-2.07-.93-2.07-2.07v-68.31c0-1.14.93-2.07,2.07-2.07h37.57c1.14,0,2.07.93,2.07,2.07v10.35c0,1.14-.93,2.07-2.07,2.07h-24.12c-.72,0-1.03.31-1.03,1.04v12.42c0,.72.31,1.03,1.03,1.03h17.33c1.14,0,2.07.93,2.07,2.07v10.35c0,1.14-.93,2.07-2.07,2.07h-17.33c-.72,0-1.03.31-1.03,1.04v12.42c0,.72.31,1.04,1.03,1.04h9.04c1.14,0,2.07.93,2.07,2.07v10.35c0,1.14-.93,2.07-2.07,2.07h-22.5Z"/>
      <path class="cls-2" d="M234.59,508.52c-1.14,0-2.07-.93-2.07-2.07v-68.31c0-1.14.93-2.07,2.07-2.07h20.29c10.76,0,18.73,5.38,22.46,13.77,1.97,4.24,2.9,11.8,2.9,22.46s-.93,18.22-2.9,22.46c-3.73,8.38-11.69,13.77-22.46,13.77h-20.29ZM254.87,493.93c4.55,0,7.56-1.66,9.11-4.97.93-2.17,1.45-7.66,1.45-16.66s-.52-14.49-1.45-16.66c-1.55-3.31-4.55-4.97-9.11-4.97h-6.83c-.72,0-1.03.31-1.03,1.03v41.19c0,.72.31,1.04,1.03,1.04h6.83Z"/>
      <path class="cls-2" d="M289.03,508.52c-1.14,0-2.07-.93-2.07-2.07v-68.31c0-1.14.93-2.07,2.07-2.07h37.57c1.14,0,2.07.93,2.07,2.07v10.35c0,1.14-.93,2.07-2.07,2.07h-24.12c-.72,0-1.03.31-1.03,1.04v12.42c0,.72.31,1.03,1.03,1.03h23.29c1.14,0,2.07.93,2.07,2.07v10.35c0,1.14-.93,2.07-2.07,2.07h-23.29c-.72,0-1.03.31-1.03,1.04v12.42c0,.72.31,1.04,1.03,1.04h24.53c1.14,0,2.07.93,2.07,2.07v10.35c0,1.14-.93,2.07-2.07,2.07h-37.98Z"/>
      <path class="cls-2" d="M337.36,508.52c-1.14,0-2.07-.93-2.07-2.07v-68.31c0-1.14.93-2.07,2.07-2.07h17.96c1.14,0,2.07.93,2.07,2.07v10.35c0,1.14-.93,2.07-2.07,2.07h-4.5c-.72,0-1.03.31-1.03,1.04v12.42c0,.72.31,1.03,1.03,1.03h23.29c1.14,0,2.07.93,2.07,2.07v10.35c0,1.14-.93,2.07-2.07,2.07h-23.29c-.72,0-1.03.31-1.03,1.04v12.42c0,.72.31,1.04,1.03,1.04h24.53c1.14,0,2.07.93,2.07,2.07v10.35c0,1.14-.93,2.07-2.07,2.07h-37.98Z"/>
      <path class="cls-2" d="M385.7,508.52c-1.14,0-2.07-.93-2.07-2.07v-68.31c0-1.14.93-2.07,2.07-2.07h22.77c6.52,0,11.69,1.97,15.73,6,4.04,4.04,6,9.21,6,15.73s-1.97,11.69-6,15.73c-4.04,4.04-9.21,6-15.73,6h-9.32c-.72,0-1.03.31-1.03,1.04v25.87c0,1.14-.93,2.07-2.07,2.07h-10.35ZM407.95,465.05c4.24,0,7.24-3,7.24-7.24s-3-7.25-7.24-7.25h-8.8c-.72,0-1.03.31-1.03,1.04v12.42c0,.72.31,1.03,1.03,1.03h8.8Z"/>
      <g>
        <path class="cls-2" d="M403.92,508.57c-.61-.27-1.08-.65-1.42-1.14-.33-.49-.5-1.06-.5-1.71v-.2c0-.07.02-.12.06-.16.04-.04.09-.06.16-.06h2.25c.07,0,.12.02.16.06.04.04.06.09.06.16v.09c0,.27.14.51.43.72.29.21.67.31,1.14.31.36,0,.61-.07.77-.23.15-.15.23-.32.23-.5,0-.21-.1-.37-.29-.48-.19-.11-.55-.24-1.06-.39l-.42-.12c-.96-.29-1.76-.68-2.41-1.16-.65-.48-.97-1.19-.97-2.1,0-.61.16-1.15.49-1.62.33-.47.78-.83,1.36-1.08.58-.25,1.22-.38,1.94-.38.75,0,1.44.14,2.05.42.61.28,1.1.68,1.45,1.19.35.51.53,1.1.53,1.76v.13c0,.07-.02.12-.06.16s-.09.06-.16.06h-2.25c-.07,0-.12-.02-.16-.06-.04-.04-.06-.09-.06-.16h0c0-.3-.13-.57-.39-.81-.26-.24-.61-.36-1.06-.36-.31,0-.55.06-.73.19-.18.13-.27.3-.27.52,0,.17.07.32.2.44.13.12.33.24.6.35.27.11.69.25,1.25.43.08.03.42.13,1.02.31.6.18,1.11.5,1.52.97.41.47.61,1.04.61,1.71s-.16,1.21-.49,1.68c-.33.47-.79.83-1.38,1.08-.59.25-1.28.38-2.06.38s-1.52-.13-2.13-.4Z"/>
        <path class="cls-2" d="M417.33,498.69h2.26c.07,0,.12.02.16.06.04.04.06.09.06.16v9.73c0,.07-.02.12-.06.16s-.09.06-.16.06h-2.29c-.07,0-.12-.02-.16-.06-.04-.04-.06-.09-.06-.16v-5.27s0-.06-.03-.07c-.02,0-.04,0-.06.04l-.99,1.61c-.06.1-.15.15-.26.15h-1.1c-.12,0-.2-.05-.26-.15l-.99-1.61s-.04-.04-.06-.04c-.02,0-.03.03-.03.07v5.27c0,.07-.02.12-.06.16s-.09.06-.16.06h-2.29c-.07,0-.12-.02-.16-.06-.04-.04-.06-.09-.06-.16v-9.73c0-.07.02-.12.06-.16.04-.04.09-.06.16-.06h2.26c.12,0,.2.05.26.15l1.83,2.95c.03.06.06.06.09,0l1.83-2.95c.06-.1.15-.15.26-.15Z"/>
      </g>
    </g>
  </g>
  <g>
    <g>
      <path d="M113.38,685.61h-3.31v6.47h-3.36v-17.19h6.66c3.55,0,5.67,2.44,5.67,5.36s-2.12,5.36-5.67,5.36ZM113.21,677.88h-3.14v4.71h3.14c1.52,0,2.49-.94,2.49-2.34s-.96-2.37-2.49-2.37Z"/>
      <path d="M132.22,692.08l-3.36-6.86h-2.41v6.86h-3.36v-17.19h6.74c3.5,0,5.58,2.39,5.58,5.26,0,2.41-1.47,3.91-3.14,4.51l3.84,7.41h-3.89ZM129.61,677.88h-3.16v4.54h3.16c1.47,0,2.44-.94,2.44-2.27s-.96-2.27-2.44-2.27Z"/>
      <path d="M140.1,692.08v-17.19h11.32v2.99h-7.97v4.03h6.78v2.99h-6.78v4.18h7.97v2.99h-11.32Z"/>
      <path d="M160.65,692.22c-2.61,0-4.59-.55-6.28-2.27l2.17-2.17c1.09,1.09,2.56,1.45,4.15,1.45,1.98,0,3.04-.75,3.04-2.13,0-.6-.17-1.11-.53-1.45-.34-.31-.72-.48-1.52-.6l-2.08-.29c-1.47-.22-2.56-.68-3.33-1.42-.82-.82-1.23-1.93-1.23-3.38,0-3.07,2.27-5.22,5.99-5.22,2.37,0,4.08.58,5.55,2l-2.13,2.1c-1.09-1.04-2.39-1.18-3.52-1.18-1.79,0-2.66.99-2.66,2.17,0,.43.15.89.51,1.23.34.31.89.58,1.59.68l2.03.29c1.57.22,2.56.65,3.28,1.33.92.87,1.33,2.13,1.33,3.65,0,3.33-2.78,5.21-6.37,5.21Z"/>
      <path d="M171.4,692.08v-17.19h11.32v2.99h-7.97v4.03h6.78v2.99h-6.78v4.18h7.97v2.99h-11.32Z"/>
      <path d="M197.39,692.08l-6.81-10.55v10.55h-3.36v-17.19h2.99l6.81,10.53v-10.53h3.35v17.19h-2.99Z"/>
      <path d="M212.17,677.88v14.2h-3.36v-14.2h-4.49v-2.99h12.34v2.99h-4.49Z"/>
      <path d="M220.61,692.08v-17.19h11.32v2.99h-7.97v4.03h6.78v2.99h-6.78v4.18h7.97v2.99h-11.32Z"/>
      <path d="M247.17,690.43c-1.13,1.13-2.75,1.64-4.54,1.64h-6.2v-17.19h6.2c1.79,0,3.4.51,4.54,1.64,1.93,1.93,1.74,4.3,1.74,6.88s.19,5.09-1.74,7.02ZM244.83,678.94c-.58-.7-1.35-1.06-2.51-1.06h-2.53v11.2h2.53c1.16,0,1.93-.36,2.51-1.06.63-.77.72-2,.72-4.61s-.1-3.69-.72-4.47Z"/>
      <path d="M267.56,692.08h-7.19v-17.19h6.9c3.36,0,5.31,1.88,5.31,4.83,0,1.91-1.25,3.14-2.13,3.55,1.04.48,2.37,1.57,2.37,3.86,0,3.21-2.2,4.95-5.26,4.95ZM267.01,677.88h-3.28v3.96h3.28c1.42,0,2.22-.8,2.22-1.98s-.8-1.98-2.22-1.98ZM267.22,684.86h-3.5v4.22h3.5c1.52,0,2.25-.96,2.25-2.12s-.72-2.1-2.25-2.1Z"/>
      <path d="M284.04,685.03v7.05h-3.33v-7.05l-5.17-10.14h3.65l3.21,6.93,3.16-6.93h3.65l-5.17,10.14Z"/>
    </g>
    <g>
      <path d="M367.79,639.65c.85-.18,1.72-.33,2.59-.46l4.09,23.32c-.89.08-1.76.23-2.6.46l-4.08-23.31ZM366.74,665.38c.86-.61,1.78-1.14,2.75-1.57l-11.75-20.5c-.93.5-1.84,1.03-2.73,1.6l11.74,20.47ZM360.08,678.3c0-.88.08-1.74.21-2.58h-23.39c-.05.82-.08,1.64-.08,2.47,0,.78.03,1.54.07,2.31h23.35c-.1-.72-.16-1.45-.16-2.2M391.79,678.3c0,8.76-7.1,15.85-15.85,15.85-7.84,0-14.35-5.7-15.62-13.17l-21.98,8.06c.49,1.72,1.09,3.39,1.79,5l21.84-8.01-17.83,15.09c1.13,1.58,2.37,3.08,3.71,4.48l16.67-14.09-10.88,19.05c1.73,1.21,3.55,2.28,5.47,3.2l10.22-17.9-3.57,20.37c2.18.59,4.44.99,6.76,1.19l3.33-19.03,3.34,19.05c2.42-.2,4.79-.62,7.06-1.25l-3.1-17.67,8.92,15.55c2.44-1.12,4.75-2.47,6.89-4.05l-8.18-14.26,12.51,10.57c2-1.97,3.78-4.15,5.32-6.51l-11.18-9.44,13.69,5.02c1.27-2.63,2.25-5.42,2.91-8.33l-12.02-4.4h12.77c.16-1.47.26-2.96.26-4.47,0-1.75-.12-3.47-.34-5.16h-23.82c.58,1.65.9,3.42.9,5.27M360.49,674.73c.32-1.4.83-2.74,1.5-3.97l-22.02-8.07c-.55,1.3-1.04,2.63-1.45,4l21.97,8.05ZM405.4,652.3l-17.92,15.14c.44.47.85.96,1.24,1.48l17.92-15.13c-.4-.51-.81-1-1.23-1.49M396.53,644.7c-.63-.39-1.27-.77-1.92-1.13l-11.75,20.47c.67.33,1.32.7,1.94,1.12l11.73-20.45ZM365.18,666.65l-17.98-15.19c-.83.91-1.62,1.86-2.37,2.84l17.94,15.16c.69-1.03,1.5-1.97,2.41-2.81M377.52,662.52c.8.08,1.58.22,2.34.41l4.08-23.31c-.77-.16-1.55-.3-2.34-.41l-4.09,23.31Z"/>
      <path d="M433.21,698.53v-40.46h14.75c4.97,0,8.85,1.22,11.63,3.65,2.79,2.43,4.18,5.81,4.18,10.14,0,2.31-.56,4.39-1.68,6.25-1.12,1.86-2.55,3.4-4.29,4.61l9.9,15.81h-11.77l-7.08-12.99h-5.43v12.99h-10.22ZM446.52,665.89h-3.09v11.82h2.98c4.65,0,6.97-1.99,6.97-5.96s-2.29-5.86-6.87-5.86Z"/>
      <path d="M477.19,698.53v-31.78h-12.4v-8.68h35.62v8.68h-12.4v31.78h-10.81Z"/>
      <path d="M500.61,698.53l14.06-21.08-13.1-19.38h12.62l7.14,12.46,7.08-12.46h12.25l-13.26,19.86,14,20.6h-12.67l-8.15-13.74-7.72,13.74h-12.25Z"/>
    </g>
  </g>
</svg>